/* XPM */
static char *_98350bd40594e12b9ba752d5c1f9af3[] = {
/* columns rows colors chars-per-pixel */
"64 64 26 1 ",
"  c gray11",
". c #382C14",
"X c #202020",
"o c #282828",
"O c #2C2C2C",
"+ c gray19",
"@ c #343434",
"# c gray22",
"$ c #403018",
"% c #483818",
"& c #543C1C",
"* c #5C4020",
"= c #6C4824",
"- c #744C28",
"; c gray25",
": c #484848",
"> c #4C4C4C",
", c gray33",
"< c gray36",
"1 c #646464",
"2 c gray44",
"3 c #7C7C7C",
"4 c #80502C",
"5 c gray55",
"6 c #989898",
"7 c gray66",
/* pixels */
"333333333333333333333333333333$$$$$$$$$$$$$$$$$$$$$$$$$$$$$$$$$$",
"333333333333333333333333333333$$$$$$$$$$$$$$$$$$$$$$$$$$$$$$$$$$",
"333333333333333333333333333333$$$$$$$$$$$$$$$$$$$$$$$$$$$$$$$$$$",
"333333333333333333333333333333$$$$$$$$$$$$$$$$$$$$$$$$$$$$$$$$$$",
"333333333333333333333333333333$$$$$$$$$$$$$$$$$$$$$$$$$$$$$$$$$$",
"333333333333333333333333333333$$$$$$$$$$$$$$$$$$$$$$$$$$$$$$$$$$",
"333333333333333333333333333333$$$$$$$$$$$$$$$$$$$$$$$$$$$$$$$$$$",
"333333333333333333333333333333$$$$$$$$$$$$$$$$$$$$$$$$$$$$$$$$$$",
"333333333333333333333333333333$$$$$$$$$$$$$$$$$$$$$$$$$$$$$$$$$$",
"333333333333333333333333333333$$$$$$$$$$$$$$$$$$$$$$$$$$$$$$$$$$",
"333333333333333333333333333333$$$$$$$$$$$$$$$$$$$$$$$$$$$$$$$$$$",
"333333333333333333333333333333$$$$$$$$$$$$$$$$$$$$$$$$$$$$$$$$$$",
"333333333333333333333333333333$$$$$$$$$$$$$$$$$$$$$$$$$$$$$$$$$$",
"333333333333333333333333333333$$$$$$$$$$$$$$$$$$$$$$$$$$$$$$$$$$",
"333333333333333333333333333333$$$$$$$$$$$$$$$$$$$$$$$$$$$$$$$$$$",
"333333333333333333333333333333$$$$$$$$$$$$$$$$$$$$$$$$$$$$$$$$$$",
"333333333333333333333333333333$$$$$$$$$$$$$$$$$$$$$$$$$$$$$$$$$$",
"333333333333333333333333333333$$$$$$$$$$$$$$$$$$$$$$$$$$$$$$$$$$",
"333333333333333333333333333333$$$$$$$$$$$$$$$$$$$$$$$$$$$$$$$$$$",
"333333333333333333333333333333$$$$$$$$$$$$$$$$$$$$$$$$$$$$$$$$$$",
"333333333333333333333333333333$$$$$$$$$$$$$$$$$$$$$$$$$$$$$$$$$$",
"333333333333333333333333333333$$$$$$$$$$$$$$$$$$$$$$$$$$$$$$$$$$",
"333333333333333333333333333333$$$$$$$$$$$$$$$$$$$$$$$$$$$$$$$$$$",
"333333333333333333333333333333$$$$$$$$$$$$$$$$$$$$$$$$$$$$$$$$$$",
"333333333333333333333333333333$$$$$$$$$$$$$$$$$$$$$$$$$$$$$$$$$$",
"333333333333333333333333333333$$$$$$$$$$$$$$$$$$$$$$$$$$$$$$$$$$",
"333333333333333333333333333333$$$$$$$$$$$$$$$$$$$$$$$$$$$$$$$$$$",
"333333333333333333333333333333$$$$$$$$$$$$$$$$$$$$$$$$$$$$$$$$$$",
"333333333333333333333333333333$$$$$$$$$$$$$$$$$$$$$$$$$$$$$$$$$$",
"333333333333333333333333333333$$$$$$$$$$$$$$$$$$$$$$$$$$$$$$$$$$",
"333333333333333333333333333333$$$$$$$$$$$$$$$$$$$$$$$$$$$$$$$$$$",
"333333333333333333333333333333$$$$$$$$$$$$$$$$$$$$$$$$$$$$$$$$$$",
"333333333333333333333333333333$$$$$$$$$$$$$$$$$$$$$$$$$$$$$$$$$$",
"333333333333333333333333333333$$$$$$$$$$$$$$$$$$$$$$$$$$$$$$$$$$",
"333333333333333333333333333333$$$$$$$$$$$$$$$$$$$$$$$$$$$$$$$$$$",
"333333333333333333333333333333$$$$$$$$$$$$$$$$$$$$$$$$$$$$$$$$$$",
"333333333333333333333333333333$$$$$$$$$$$$$$$$$$$$$$$$$$$$$$$$$$",
"333333333333333333333333333333$$$$$$$$$$$$$$$$$$$$$$$$$$$$$$$$$$",
"333333333333333333333333333333$$$$$$$$$$$$$$$$$$$$$$$$$$$$$$$$$$",
"333333333333333333333333333333$$$$$$$$$$$$$$$$$$$$$$$$$$$$$$$$$$",
"333333333333333333333333333333$$$$$$$$$$$$$$$$$$$$$$$$$$$$$$$$$$",
"333333333333333333333333333333$$$$$$$$$$$$$$$$$$$$$$$$$$$$$$$$$$",
"333333333333333333333333333333$$$$$$$$$$$$$$$$$$$$$$$$$$$$$$$$$$",
"333333333333333333333333333333$$$$$$$$$$$$$$$$$$$$$$$$$$$$$$$$$$",
"333333333333333333333333333333$$$$$$$$$$$$$$$$$$$$$$$$$$$$$$$$$$",
"333333333333333333333333333333$$$$$$$$$$$$$$$$$$$$$$$$$$$$$$$$$$",
"333333333333333333333333333333$$$$$$$$$$$$$$$$$$$$$$$$$$$$$$$$$$",
"333333333333333333333333333333$$$$$$$$$$$$$$$$$$$$$$$$$$$$$$$$$$",
"333333333333333333333333333333$$$$$$$$$$$$$$$$$$$$$$$$$$$$$$$$$$",
"333333333333333333333333333333$$$$$$$$$$$$$$$$$$$$$$$$$$$$$$$$$$",
"333333333333333333333333333333$$$$$$$$$$$$$$$$$$$$$$$$$$$$$$$$$$",
"333333333333333333333333333333$$$$$$$$$$$$$$$$$$$$$$$$$$$$$$$$$$",
"333333333333333333333333333333$$$$$$$$$$$$$$$$$$$$$$$$$$$$$$$$$$",
"333333333333333333333333333333$$$$$$$$$$$$$$$$$$$$$$$$$$$$$$$$$$",
"333333333333333333333333333333$$$$$$$$$$$$$$$$$$$$$$$$$$$$$$$$$$",
"333333333333333333333333333333$$$$$$$$$$$$$$$$$$$$$$$$$$$$$$$$$$",
"333333333333333333333333333333$$$$$$$$$$$$$$$$$$$$$$$$$$$$$$$$$$",
"333333333333333333333333333333$$$$$$$$$$$$$$$$$$$$$$$$$$$$$$$$$$",
"333333333333333333333333333333$$$$$$$$$$$$$$$$$$$$$$$$$$$$$$$$$$",
"333333333333333333333333333333$$$$$$$$$$$$$$$$$$$$$$$$$$$$$$$$$$",
"333333333333333333333333333333$$$$$$$$$$$$$$$$$$$$$$$$$$$$$$$$$$",
"333333333333333333333333333333$$$$$$$$$$$$$$$$$$$$$$$$$$$$$$$$$$",
"333333333333333333333333333333$$$$$$$$$$$$$$$$$$$$$$$$$$$$$$$$$$",
"333333333333333333333333333333$$$$$$$$$$$$$$$$$$$$$$$$$$$$$$$$$$",
};